<svg xmlns="http://www.w3.org/2000/svg" xmlns:xlink="http://www.w3.org/1999/xlink" width="44" height="44" viewBox="0 0 44 44">
  <defs>
    <filter id="Rectangle_44" x="-9" y="-6" width="62" height="62" filterUnits="userSpaceOnUse">
      <feOffset dy="3" input="SourceAlpha"/>
      <feGaussianBlur stdDeviation="3" result="blur"/>
      <feFlood flood-opacity="0.161"/>
      <feComposite operator="in" in2="blur"/>
      <feComposite in="SourceGraphic"/>
    </filter>
    <linearGradient id="linear-gradient" x1="0.5" x2="0.5" y2="1" gradientUnits="objectBoundingBox">
      <stop offset="0"/>
      <stop offset="1" stop-color="#545454"/>
    </linearGradient>
    <clipPath id="clip-Shopping">
      <rect width="44" height="44"/>
    </clipPath>
  </defs>
  <g id="Shopping" clip-path="url(#clip-Shopping)">
    <rect width="44" height="44" fill="#fff"/>
    <g transform="matrix(1, 0, 0, 1, 0, 0)" filter="url(#Rectangle_44)">
      <rect id="Rectangle_44-2" data-name="Rectangle 44" width="44" height="44" fill="#fff"/>
    </g>
    <g id="shopping_cart-24px_4_" data-name="shopping_cart-24px (4)" transform="translate(10.243 10.243)">
      <path id="Path_16" data-name="Path 16" d="M0,0H23.514V23.514H0Z" fill="none"/>
      <path id="Path_17" data-name="Path 17" d="M6.879,17.676a1.96,1.96,0,1,0,1.96,1.96A1.957,1.957,0,0,0,6.879,17.676ZM1,2V3.96H2.96L6.487,11.4,5.164,13.8a1.894,1.894,0,0,0-.245.941,1.965,1.965,0,0,0,1.96,1.96H18.636v-1.96H7.29a.243.243,0,0,1-.245-.245l.029-.118.882-1.6h7.3a1.95,1.95,0,0,0,1.715-1.009L20.477,5.41a.957.957,0,0,0,.118-.47.983.983,0,0,0-.98-.98H5.125L4.2,2H1ZM16.676,17.676a1.96,1.96,0,1,0,1.96,1.96A1.957,1.957,0,0,0,16.676,17.676Z" transform="translate(-0.02 -0.04)" fill="url(#linear-gradient)"/>
    </g>
  </g>
</svg>
